<?xml version="1.0" ?><svg height="48px" version="1.1" viewBox="0 0 48 48" width="48px" xmlns="http://www.w3.org/2000/svg" xmlns:xlink="http://www.w3.org/1999/xlink"><title/><desc/><g fill="none" fill-rule="evenodd" id="Page-1" stroke="none" stroke-width="1"><g id="Artboard-Copy" transform="translate(-227.000000, -369.000000)"><path d="M241.001,385.2051 L241.001,404.5001 L241.57,405.0001 C242.942,405.5821 246.647,406.0001 251,406.0001 C255.354,406.0001 259.059,405.5821 260.43,405.0001 L260.998,404.5001 L260.998,385.2051 L264.506,388.7091 C264.893,389.0961 265.52,389.0961 265.906,388.7091 L268.711,385.9061 C269.098,385.5191 269.098,384.8921 268.711,384.5061 L261.205,377.0001 L260.998,377.0001 L255.9,377.0001 C255.436,379.2831 253.42,381.0001 251,381.0001 C248.581,381.0001 246.564,379.2831 246.1,377.0001 L241.001,377.0001 L240.794,377.0001 L233.29,384.5061 C232.903,384.8921 232.903,385.5191 233.29,385.9061 L236.094,388.7091 C236.48,389.0961 237.107,389.0961 237.495,388.7091 L241.001,385.2051 Z" fill="#000000" id="t-shirt"/><g id="slices" transform="translate(47.000000, 9.000000)"/></g></g></svg>